<svg width="30" height="31" viewBox="0 0 30 31" fill="none" xmlns="http://www.w3.org/2000/svg">
<path d="M0 7.78491C0 5.71384 1.67893 4.03491 3.75 4.03491H26.25C28.3211 4.03491 30 5.71384 30 7.78491V22.7849C30 24.856 28.3211 26.5349 26.25 26.5349H3.75C1.67893 26.5349 0 24.856 0 22.7849V7.78491ZM3.75 5.90991C2.71447 5.90991 1.875 6.74938 1.875 7.78491V8.19161L15 16.0666L28.125 8.19161V7.78491C28.125 6.74938 27.2855 5.90991 26.25 5.90991H3.75ZM28.125 10.3782L19.2974 15.6748L28.125 21.1072V10.3782ZM28.0617 23.2698L17.4859 16.7617L15 18.2532L12.5141 16.7617L1.93831 23.2698C2.15202 24.0703 2.88216 24.6599 3.75 24.6599H26.25C27.1178 24.6599 27.848 24.0703 28.0617 23.2698ZM1.875 21.1072L10.7026 15.6748L1.875 10.3782V21.1072Z" fill="#2D31A6" fill-opacity="0.2"/>
</svg>
