<svg width="30" height="31" viewBox="0 0 30 31" fill="none" xmlns="http://www.w3.org/2000/svg">
<path d="M25.0479 21.3553C28.2399 18.5117 30 15.2849 30 15.2849C30 15.2849 24.375 4.97236 15 4.97236C13.0962 4.97236 11.347 5.39765 9.76813 6.07549L11.2135 7.52087C12.3934 7.09706 13.6583 6.84736 15 6.84736C18.9738 6.84736 22.2731 9.0377 24.6898 11.4544C25.8819 12.6466 26.8085 13.8447 27.4364 14.7456C27.5727 14.9413 27.6945 15.1221 27.8012 15.2849C27.6945 15.4476 27.5727 15.6284 27.4364 15.8241C26.8085 16.725 25.8819 17.9232 24.6898 19.1153C24.3808 19.4243 24.0573 19.7297 23.7198 20.0272L25.0479 21.3553Z" fill="#2D31A6" fill-opacity="0.2"/>
<path d="M21.1828 17.4901C21.4286 16.8009 21.5625 16.0585 21.5625 15.2849C21.5625 11.6605 18.6244 8.72236 15 8.72236C14.2263 8.72236 13.484 8.85624 12.7947 9.10209L14.3366 10.6439C14.5533 10.6132 14.7748 10.5974 15 10.5974C17.5888 10.5974 19.6875 12.696 19.6875 15.2849C19.6875 15.5101 19.6716 15.7316 19.6409 15.9483L21.1828 17.4901Z" fill="#2D31A6" fill-opacity="0.2"/>
<path d="M15.6635 19.9258L17.2053 21.4676C16.5161 21.7135 15.7737 21.8474 15 21.8474C11.3756 21.8474 8.4375 18.9092 8.4375 15.2849C8.4375 14.5112 8.57138 13.7688 8.81724 13.0795L10.3591 14.6214C10.3284 14.8381 10.3125 15.0596 10.3125 15.2849C10.3125 17.8737 12.4112 19.9724 15 19.9724C15.2252 19.9724 15.4467 19.9565 15.6635 19.9258Z" fill="#2D31A6" fill-opacity="0.2"/>
<path d="M6.2802 10.5425C5.94273 10.84 5.61925 11.1454 5.3102 11.4544C4.11808 12.6466 3.19155 13.8447 2.56364 14.7456C2.42726 14.9413 2.30555 15.1221 2.19881 15.2849C2.30555 15.4476 2.42726 15.6284 2.56364 15.8241C3.19155 16.725 4.11808 17.9232 5.3102 19.1153C7.72693 21.532 11.0262 23.7224 15 23.7224C16.3418 23.7224 17.6066 23.4726 18.7865 23.0488L20.2319 24.4942C18.6531 25.1721 16.9039 25.5974 15 25.5974C5.625 25.5974 0 15.2849 0 15.2849C0 15.2849 1.76009 12.058 4.95209 9.2144L6.2802 10.5425Z" fill="#2D31A6" fill-opacity="0.2"/>
<path d="M25.5871 27.1978L3.08709 4.69777L4.41291 3.37195L26.9129 25.8719L25.5871 27.1978Z" fill="#2D31A6" fill-opacity="0.2"/>
</svg>
