<svg width="30" height="31" viewBox="0 0 30 31" fill="none" xmlns="http://www.w3.org/2000/svg">
<path d="M2.54417 6.80661C1.75527 14.2471 4.17467 19.7969 7.08656 23.515C8.59187 25.437 10.2279 26.8695 11.6198 27.8276C12.3153 28.3062 12.9598 28.6734 13.5072 28.9248C14.0129 29.1572 14.554 29.3474 15.0001 29.3474C15.4462 29.3474 15.9873 29.1572 16.493 28.9248C17.0404 28.6734 17.6849 28.3062 18.3804 27.8276C19.254 27.2263 20.2237 26.4381 21.1969 25.4594L19.8711 24.1335C18.9815 25.0286 18.1003 25.7441 17.3173 26.283C16.6941 26.712 16.1431 27.0222 15.7102 27.2211C15.4935 27.3207 15.3162 27.3878 15.1816 27.4285C15.0707 27.462 15.0136 27.47 15.0001 27.4718C14.9865 27.47 14.9295 27.462 14.8186 27.4285C14.684 27.3878 14.5067 27.3207 14.29 27.2211C13.857 27.0222 13.3061 26.712 12.6829 26.283C11.4374 25.4258 9.94347 24.1219 8.56272 22.3589C6.11598 19.2347 4.02171 14.669 4.29191 8.55436L2.54417 6.80661Z" fill="#2D31A6" fill-opacity="0.2"/>
<path d="M23.2678 19.5753C25.0895 16.2282 26.2576 11.7952 25.4949 6.20824C25.4523 5.89673 25.2259 5.62413 24.9033 5.5214C23.731 5.14804 21.7503 4.53628 19.7944 4.01881C17.7947 3.48973 15.9561 3.09741 15.0001 3.09741C14.044 3.09741 12.2055 3.48973 10.2058 4.01881C9.54719 4.19305 8.8858 4.37798 8.2534 4.5609L6.74325 3.05075C7.66485 2.77523 8.6975 2.47834 9.72619 2.20618C11.6816 1.68884 13.7583 1.22241 15.0001 1.22241C16.2419 1.22241 18.3186 1.68884 20.274 2.20618C22.2733 2.73513 24.2875 3.35747 25.4723 3.73482C26.4611 4.04974 27.209 4.90255 27.3526 5.95461C28.2115 12.2451 26.7922 17.2331 24.6448 20.9523L23.2678 19.5753Z" fill="#2D31A6" fill-opacity="0.2"/>
<path fill-rule="evenodd" clip-rule="evenodd" d="M25.5872 27.1978L1.21216 2.82277L2.53798 1.49695L26.913 25.8719L25.5872 27.1978Z" fill="#2D31A6" fill-opacity="0.2"/>
</svg>
